<svg width="44" height="44" viewBox="0 0 44 44" fill="none" xmlns="http://www.w3.org/2000/svg">
<g filter="url(#filter0_d_170_3)">
<circle cx="22" cy="18" r="18" fill="#008894"/>
</g>
<path d="M34.4844 19.0391L31.3672 26.2031C30.8932 26.9688 30.2188 27.3516 29.3438 27.3516H19.8828C19.1536 27.3516 18.5156 27.0781 17.9688 26.5312C17.4219 25.9844 17.1484 25.3464 17.1484 24.6172V15.4844C17.1484 14.8281 17.3854 14.263 17.8594 13.7891L25.3516 6.35156L25.8438 6.89844C26.2812 7.33594 26.6276 7.8099 26.8828 8.32031C26.9922 8.57552 27.0286 8.83073 26.9922 9.08594L25.8984 14.5H32.3516C32.9714 14.5 33.5 14.737 33.9375 15.2109C34.4115 15.6849 34.6484 16.2318 34.6484 16.8516V18.1094C34.6484 18.4375 34.5938 18.7474 34.4844 19.0391ZM11.3516 27.3516V14.5H13.6484C13.9766 14.5 14.25 14.6094 14.4688 14.8281C14.724 15.0469 14.8516 15.3203 14.8516 15.6484V26.1484C14.8516 26.4766 14.724 26.7682 14.4688 27.0234C14.25 27.2422 13.9766 27.3516 13.6484 27.3516H11.3516Z" fill="white"/>
<defs>
<filter id="filter0_d_170_3" x="0" y="0" width="44" height="44" filterUnits="userSpaceOnUse" color-interpolation-filters="sRGB">
<feFlood flood-opacity="0" result="BackgroundImageFix"/>
<feColorMatrix in="SourceAlpha" type="matrix" values="0 0 0 0 0 0 0 0 0 0 0 0 0 0 0 0 0 0 127 0" result="hardAlpha"/>
<feOffset dy="4"/>
<feGaussianBlur stdDeviation="2"/>
<feComposite in2="hardAlpha" operator="out"/>
<feColorMatrix type="matrix" values="0 0 0 0 0 0 0 0 0 0 0 0 0 0 0 0 0 0 0.25 0"/>
<feBlend mode="normal" in2="BackgroundImageFix" result="effect1_dropShadow_170_3"/>
<feBlend mode="normal" in="SourceGraphic" in2="effect1_dropShadow_170_3" result="shape"/>
</filter>
</defs>
</svg>
