<svg width="127" height="32" viewBox="0 0 127 32" fill="none" xmlns="http://www.w3.org/2000/svg">
<path d="M4 4H20V6.6875H4V4ZM18.6875 8H5.3125C4.60417 8 3.97917 8.27083 3.4375 8.8125C2.9375 9.3125 2.6875 9.9375 2.6875 10.6875V25.3125C2.6875 26.0625 2.9375 26.7083 3.4375 27.25C3.97917 27.75 4.60417 28 5.3125 28H18.6875C19.3958 28 20 27.75 20.5 27.25C21.0417 26.7083 21.3125 26.0625 21.3125 25.3125V10.6875C21.3125 9.9375 21.0417 9.3125 20.5 8.8125C20 8.27083 19.3958 8 18.6875 8ZM17.3125 20H14V23.3125H10V20H6.6875V16H10V12.6875H14V16H17.3125V20ZM26.6875 8C25.9375 8 25.25 8.25 24.625 8.75C24.0417 9.20833 23.5625 9.83333 23.1875 10.625C22.8542 11.4167 22.6875 12.3125 22.6875 13.3125C22.6875 14.5208 22.9375 15.5833 23.4375 16.5C23.9375 17.375 24.5625 18 25.3125 18.375V26.6875C25.3125 27.0208 25.4375 27.3333 25.6875 27.625C25.9792 27.875 26.3125 28 26.6875 28C27.0208 28 27.3125 27.875 27.5625 27.625C27.8542 27.3333 28 27.0208 28 26.6875V18.375C28.7917 18 29.4375 17.375 29.9375 16.5C30.4375 15.5833 30.6875 14.5208 30.6875 13.3125C30.6875 12.3125 30.5 11.4167 30.125 10.625C29.7917 9.83333 29.3125 9.20833 28.6875 8.75C28.1042 8.25 27.4375 8 26.6875 8Z" fill="white"/>
<path d="M34.5234 22H33.1406V10.3125H36.9062C37.4792 10.3125 37.9974 10.3724 38.4609 10.4922C38.9245 10.612 39.3359 10.7943 39.6953 11.0391C40.0547 11.2839 40.3333 11.612 40.5312 12.0234C40.7292 12.4349 40.8281 12.9141 40.8281 13.4609C40.8281 13.9141 40.7865 14.3203 40.7031 14.6797C40.6198 15.0339 40.4766 15.3672 40.2734 15.6797C40.0703 15.9922 39.8047 16.2526 39.4766 16.4609C39.1484 16.6641 38.7266 16.8255 38.2109 16.9453C37.7005 17.0599 37.1068 17.1172 36.4297 17.1172C35.8932 17.1172 35.2578 17.0833 34.5234 17.0156V22ZM36.5625 15.9219C37.0729 15.9219 37.5104 15.8724 37.875 15.7734C38.2396 15.6745 38.5182 15.5521 38.7109 15.4062C38.9089 15.2604 39.0625 15.0703 39.1719 14.8359C39.2865 14.6016 39.3568 14.388 39.3828 14.1953C39.4089 13.9974 39.4219 13.7604 39.4219 13.4844C39.4219 12.8229 39.1979 12.3359 38.75 12.0234C38.3073 11.7109 37.7031 11.5547 36.9375 11.5547H34.5234V15.9062C35.5286 15.9167 36.2083 15.9219 36.5625 15.9219ZM44.5938 21.125C45.2135 21.125 45.7578 20.9557 46.2266 20.6172C46.7005 20.2734 47.0052 19.8125 47.1406 19.2344V17.7891C47.1146 17.7891 46.9557 17.8021 46.6641 17.8281C46.3776 17.8542 46.1901 17.8698 46.1016 17.875C44.9714 17.974 44.1823 18.1589 43.7344 18.4297C43.2917 18.7005 43.0703 19.1354 43.0703 19.7344C43.0703 20.1927 43.2057 20.5391 43.4766 20.7734C43.7474 21.0078 44.1198 21.125 44.5938 21.125ZM47.4297 22C47.3516 21.6667 47.276 21.3073 47.2031 20.9219C46.7292 21.3958 46.2839 21.724 45.8672 21.9062C45.4505 22.0885 44.9609 22.1797 44.3984 22.1797C43.5964 22.1797 42.9505 21.9714 42.4609 21.5547C41.9766 21.1328 41.7344 20.5286 41.7344 19.7422C41.7344 18.8672 42.0651 18.2188 42.7266 17.7969C43.3932 17.375 44.3516 17.112 45.6016 17.0078C45.7734 16.9922 46.0312 16.9714 46.375 16.9453C46.724 16.9141 46.9844 16.8906 47.1562 16.875V16.1172C47.1562 15.513 47.0156 15.0651 46.7344 14.7734C46.4531 14.4818 46.0104 14.3359 45.4062 14.3359C44.5625 14.3359 43.7109 14.5443 42.8516 14.9609C42.8255 14.8984 42.7578 14.7188 42.6484 14.4219C42.5391 14.1198 42.4818 13.9635 42.4766 13.9531C42.8568 13.7396 43.3073 13.5703 43.8281 13.4453C44.3542 13.3151 44.888 13.25 45.4297 13.25C46.4974 13.25 47.2656 13.4844 47.7344 13.9531C48.2083 14.4167 48.4453 15.2083 48.4453 16.3281V22H47.4297ZM54.5391 13.3516C54.7734 13.3516 54.987 13.3672 55.1797 13.3984L55.1328 14.6016C54.8932 14.5599 54.6849 14.5391 54.5078 14.5391C53.7786 14.5391 53.1849 14.7943 52.7266 15.3047C52.2734 15.8099 52.0469 16.4375 52.0469 17.1875V22H50.7422C50.737 16.7396 50.7344 13.8828 50.7344 13.4297H51.8203L51.9453 14.9688C52.2422 14.4844 52.6198 14.0938 53.0781 13.7969C53.5365 13.5 54.0234 13.3516 54.5391 13.3516ZM58.8438 21.125C59.4635 21.125 60.0078 20.9557 60.4766 20.6172C60.9505 20.2734 61.2552 19.8125 61.3906 19.2344V17.7891C61.3646 17.7891 61.2057 17.8021 60.9141 17.8281C60.6276 17.8542 60.4401 17.8698 60.3516 17.875C59.2214 17.974 58.4323 18.1589 57.9844 18.4297C57.5417 18.7005 57.3203 19.1354 57.3203 19.7344C57.3203 20.1927 57.4557 20.5391 57.7266 20.7734C57.9974 21.0078 58.3698 21.125 58.8438 21.125ZM61.6797 22C61.6016 21.6667 61.526 21.3073 61.4531 20.9219C60.9792 21.3958 60.5339 21.724 60.1172 21.9062C59.7005 22.0885 59.2109 22.1797 58.6484 22.1797C57.8464 22.1797 57.2005 21.9714 56.7109 21.5547C56.2266 21.1328 55.9844 20.5286 55.9844 19.7422C55.9844 18.8672 56.3151 18.2188 56.9766 17.7969C57.6432 17.375 58.6016 17.112 59.8516 17.0078C60.0234 16.9922 60.2812 16.9714 60.625 16.9453C60.974 16.9141 61.2344 16.8906 61.4062 16.875V16.1172C61.4062 15.513 61.2656 15.0651 60.9844 14.7734C60.7031 14.4818 60.2604 14.3359 59.6562 14.3359C58.8125 14.3359 57.9609 14.5443 57.1016 14.9609C57.0755 14.8984 57.0078 14.7188 56.8984 14.4219C56.7891 14.1198 56.7318 13.9635 56.7266 13.9531C57.1068 13.7396 57.5573 13.5703 58.0781 13.4453C58.6042 13.3151 59.138 13.25 59.6797 13.25C60.7474 13.25 61.5156 13.4844 61.9844 13.9531C62.4583 14.4167 62.6953 15.2083 62.6953 16.3281V22H61.6797Z" fill="#FEF75E"/>
<path d="M105.422 21.2891L101.875 13.0391L101.578 12.25L101.633 15.0781V22H100.367V10.4453H102.117L106.141 19.6484L110.125 10.4453H111.828V22H110.516V15.0469L110.57 12.2812L110.281 13.0703L106.742 21.2891H105.422ZM116.797 21.125C117.417 21.125 117.961 20.9557 118.43 20.6172C118.904 20.2734 119.208 19.8125 119.344 19.2344V17.7891C119.318 17.7891 119.159 17.8021 118.867 17.8281C118.581 17.8542 118.393 17.8698 118.305 17.875C117.174 17.974 116.385 18.1589 115.938 18.4297C115.495 18.7005 115.273 19.1354 115.273 19.7344C115.273 20.1927 115.409 20.5391 115.68 20.7734C115.951 21.0078 116.323 21.125 116.797 21.125ZM119.633 22C119.555 21.6667 119.479 21.3073 119.406 20.9219C118.932 21.3958 118.487 21.724 118.07 21.9062C117.654 22.0885 117.164 22.1797 116.602 22.1797C115.799 22.1797 115.154 21.9714 114.664 21.5547C114.18 21.1328 113.938 20.5286 113.938 19.7422C113.938 18.8672 114.268 18.2188 114.93 17.7969C115.596 17.375 116.555 17.112 117.805 17.0078C117.977 16.9922 118.234 16.9714 118.578 16.9453C118.927 16.9141 119.188 16.8906 119.359 16.875V16.1172C119.359 15.513 119.219 15.0651 118.938 14.7734C118.656 14.4818 118.214 14.3359 117.609 14.3359C116.766 14.3359 115.914 14.5443 115.055 14.9609C115.029 14.8984 114.961 14.7188 114.852 14.4219C114.742 14.1198 114.685 13.9635 114.68 13.9531C115.06 13.7396 115.51 13.5703 116.031 13.4453C116.557 13.3151 117.091 13.25 117.633 13.25C118.701 13.25 119.469 13.4844 119.938 13.9531C120.411 14.4167 120.648 15.2083 120.648 16.3281V22H119.633ZM125.203 22.1562C124.37 22.1562 123.779 21.9323 123.43 21.4844C123.086 21.0365 122.914 20.2578 122.914 19.1484V10.1016L124.211 10.0234V18.6328C124.211 18.987 124.214 19.2708 124.219 19.4844C124.229 19.6979 124.25 19.9089 124.281 20.1172C124.312 20.3203 124.354 20.474 124.406 20.5781C124.458 20.6823 124.534 20.7786 124.633 20.8672C124.732 20.9505 124.849 21.0078 124.984 21.0391C125.125 21.0651 125.297 21.0781 125.5 21.0781C125.667 21.0781 125.995 21.0469 126.484 20.9844L126.555 22.0234C126.018 22.112 125.568 22.1562 125.203 22.1562Z" fill="white"/>
<path opacity="0.5" d="M68.7422 22.1797C67.4818 22.1797 66.4948 21.7708 65.7812 20.9531C65.0729 20.1354 64.7188 19.0651 64.7188 17.7422C64.724 16.4089 65.0859 15.3281 65.8047 14.5C66.5286 13.6667 67.5182 13.25 68.7734 13.25C69.2161 13.25 69.6432 13.3047 70.0547 13.4141C70.4714 13.5234 70.7995 13.6667 71.0391 13.8438L70.6797 14.8594C70.0703 14.5312 69.4271 14.3672 68.75 14.3672C67.9219 14.3672 67.2656 14.6693 66.7812 15.2734C66.3021 15.8776 66.0625 16.7031 66.0625 17.75C66.0625 18.7708 66.2995 19.5807 66.7734 20.1797C67.2526 20.7734 67.9141 21.0703 68.7578 21.0703C69.4297 21.0703 70.1172 20.888 70.8203 20.5234L70.9844 21.5625C70.4167 21.974 69.6693 22.1797 68.7422 22.1797ZM77.6172 15.0156C77.237 14.5573 76.7135 14.3281 76.0469 14.3281C75.3802 14.3281 74.8359 14.5651 74.4141 15.0391C73.9922 15.5078 73.7448 16.151 73.6719 16.9688H78.1953C78.1953 16.1198 78.0026 15.4688 77.6172 15.0156ZM76.3047 22.1797C75.0599 22.1797 74.0781 21.7839 73.3594 20.9922C72.6458 20.2005 72.2891 19.1172 72.2891 17.7422C72.2891 16.4141 72.6354 15.3385 73.3281 14.5156C74.0208 13.6875 74.9323 13.2656 76.0625 13.25C77.125 13.25 77.9661 13.6146 78.5859 14.3438C79.2109 15.0677 79.5234 16.0365 79.5234 17.25C79.5234 17.3125 79.5208 17.4271 79.5156 17.5938C79.5156 17.7604 79.5156 17.8802 79.5156 17.9531H73.6328C73.6484 18.9271 73.8984 19.6875 74.3828 20.2344C74.8724 20.776 75.5286 21.0469 76.3516 21.0469C77.2578 21.0469 78.1667 20.8073 79.0781 20.3281L79.2812 21.3828C78.4115 21.9141 77.4193 22.1797 76.3047 22.1797ZM85.1875 22H83.8281V11.6406H80.2734V10.4453H88.7422V11.6406H85.1875V22ZM95.6875 17.2031C94.5885 14.0104 93.9818 12.2161 93.8672 11.8203C93.8672 11.8203 93.2344 13.6146 91.9688 17.2031H95.6875ZM97.4766 22L96.125 18.3359H91.5156L90.1172 22H88.7422L93.1797 10.4219H94.5625L98.8672 22H97.4766Z" fill="white"/>
</svg>
