<svg width="24" height="24" viewBox="0 0 24 24" fill="none" xmlns="http://www.w3.org/2000/svg">
<path d="M13.1484 8.5V6.14844H10.8516V8.5H13.1484ZM13.1484 17.8516V10.8516H10.8516V17.8516H13.1484ZM3.74219 3.79688C6.03906 1.5 8.79167 0.351562 12 0.351562C15.2083 0.351562 17.9427 1.5 20.2031 3.79688C22.5 6.05729 23.6484 8.79167 23.6484 12C23.6484 15.2083 22.5 17.9609 20.2031 20.2578C17.9427 22.5182 15.2083 23.6484 12 23.6484C8.79167 23.6484 6.03906 22.5182 3.74219 20.2578C1.48177 17.9609 0.351562 15.2083 0.351562 12C0.351562 8.79167 1.48177 6.05729 3.74219 3.79688Z" fill="#008894"/>
</svg>
