<svg width="84" height="34" viewBox="0 0 84 34" fill="none" xmlns="http://www.w3.org/2000/svg">
<path d="M4 4H20V6.6875H4V4ZM18.6875 8H5.3125C4.60417 8 3.97917 8.27083 3.4375 8.8125C2.9375 9.3125 2.6875 9.9375 2.6875 10.6875V25.3125C2.6875 26.0625 2.9375 26.7083 3.4375 27.25C3.97917 27.75 4.60417 28 5.3125 28H18.6875C19.3958 28 20 27.75 20.5 27.25C21.0417 26.7083 21.3125 26.0625 21.3125 25.3125V10.6875C21.3125 9.9375 21.0417 9.3125 20.5 8.8125C20 8.27083 19.3958 8 18.6875 8ZM17.3125 20H14V23.3125H10V20H6.6875V16H10V12.6875H14V16H17.3125V20ZM26.6875 8C25.9375 8 25.25 8.25 24.625 8.75C24.0417 9.20833 23.5625 9.83333 23.1875 10.625C22.8542 11.4167 22.6875 12.3125 22.6875 13.3125C22.6875 14.5208 22.9375 15.5833 23.4375 16.5C23.9375 17.375 24.5625 18 25.3125 18.375V26.6875C25.3125 27.0208 25.4375 27.3333 25.6875 27.625C25.9792 27.875 26.3125 28 26.6875 28C27.0208 28 27.3125 27.875 27.5625 27.625C27.8542 27.3333 28 27.0208 28 26.6875V18.375C28.7917 18 29.4375 17.375 29.9375 16.5C30.4375 15.5833 30.6875 14.5208 30.6875 13.3125C30.6875 12.3125 30.5 11.4167 30.125 10.625C29.7917 9.83333 29.3125 9.20833 28.6875 8.75C28.1042 8.25 27.4375 8 26.6875 8Z" fill="white"/>
<path d="M40.4219 15.2891L36.875 7.03906L36.5781 6.25L36.6328 9.07812V16H35.3672V4.44531H37.1172L41.1406 13.6484L45.125 4.44531H46.8281V16H45.5156V9.04688L45.5703 6.28125L45.2812 7.07031L41.7422 15.2891H40.4219ZM51.7969 15.125C52.4167 15.125 52.9609 14.9557 53.4297 14.6172C53.9036 14.2734 54.2083 13.8125 54.3438 13.2344V11.7891C54.3177 11.7891 54.1589 11.8021 53.8672 11.8281C53.5807 11.8542 53.3932 11.8698 53.3047 11.875C52.1745 11.974 51.3854 12.1589 50.9375 12.4297C50.4948 12.7005 50.2734 13.1354 50.2734 13.7344C50.2734 14.1927 50.4089 14.5391 50.6797 14.7734C50.9505 15.0078 51.3229 15.125 51.7969 15.125ZM54.6328 16C54.5547 15.6667 54.4792 15.3073 54.4062 14.9219C53.9323 15.3958 53.487 15.724 53.0703 15.9062C52.6536 16.0885 52.1641 16.1797 51.6016 16.1797C50.7995 16.1797 50.1536 15.9714 49.6641 15.5547C49.1797 15.1328 48.9375 14.5286 48.9375 13.7422C48.9375 12.8672 49.2682 12.2188 49.9297 11.7969C50.5964 11.375 51.5547 11.112 52.8047 11.0078C52.9766 10.9922 53.2344 10.9714 53.5781 10.9453C53.9271 10.9141 54.1875 10.8906 54.3594 10.875V10.1172C54.3594 9.51302 54.2188 9.0651 53.9375 8.77344C53.6562 8.48177 53.2135 8.33594 52.6094 8.33594C51.7656 8.33594 50.9141 8.54427 50.0547 8.96094C50.0286 8.89844 49.9609 8.71875 49.8516 8.42188C49.7422 8.11979 49.6849 7.96354 49.6797 7.95312C50.0599 7.73958 50.5104 7.57031 51.0312 7.44531C51.5573 7.3151 52.0911 7.25 52.6328 7.25C53.7005 7.25 54.4688 7.48438 54.9375 7.95312C55.4115 8.41667 55.6484 9.20833 55.6484 10.3281V16H54.6328ZM57.8984 16V7.42969H58.9922L59.1562 8.65625C59.4948 8.23438 59.9167 7.89583 60.4219 7.64062C60.9323 7.38021 61.4818 7.25 62.0703 7.25C63.0599 7.25 63.7917 7.52865 64.2656 8.08594C64.7396 8.63802 64.9766 9.48958 64.9766 10.6406V16H63.6719C63.6719 12.5625 63.6693 10.7214 63.6641 10.4766C63.6432 9.7474 63.4948 9.21354 63.2188 8.875C62.9479 8.53646 62.4922 8.36719 61.8516 8.36719C61.1797 8.36719 60.6198 8.52865 60.1719 8.85156C59.724 9.17448 59.4323 9.59375 59.2969 10.1094C59.2448 10.4583 59.2188 10.8594 59.2188 11.3125V16H57.8984ZM70.4766 14.8828C70.9193 14.8828 71.3073 14.8047 71.6406 14.6484C71.974 14.4922 72.2344 14.276 72.4219 14C72.6094 13.724 72.7474 13.4167 72.8359 13.0781C72.9297 12.7396 72.9766 12.3698 72.9766 11.9688V11.3359C72.9766 10.9193 72.9297 10.5365 72.8359 10.1875C72.7422 9.83333 72.5964 9.51823 72.3984 9.24219C72.2057 8.96094 71.9453 8.74219 71.6172 8.58594C71.2943 8.42969 70.9167 8.35156 70.4844 8.35156C70.125 8.35156 69.7969 8.41927 69.5 8.55469C69.2083 8.6901 68.9661 8.86979 68.7734 9.09375C68.5859 9.3125 68.4245 9.57031 68.2891 9.86719C68.1589 10.1589 68.0651 10.4557 68.0078 10.7578C67.9505 11.0599 67.9219 11.3646 67.9219 11.6719C67.9219 11.974 67.9531 12.2734 68.0156 12.5703C68.0781 12.8672 68.1771 13.1562 68.3125 13.4375C68.4479 13.7188 68.612 13.9661 68.8047 14.1797C68.9974 14.388 69.237 14.5573 69.5234 14.6875C69.8151 14.8177 70.1328 14.8828 70.4766 14.8828ZM68.4688 19.9219L68.3516 18.7422H69.9453C70.388 18.7422 70.7734 18.7109 71.1016 18.6484C71.4297 18.5859 71.7031 18.4818 71.9219 18.3359C72.1406 18.1953 72.3177 18.0365 72.4531 17.8594C72.5885 17.6875 72.6901 17.4609 72.7578 17.1797C72.8307 16.9036 72.8776 16.6276 72.8984 16.3516C72.9245 16.0807 72.9375 15.7474 72.9375 15.3516V14.5938C72.625 15.0417 72.263 15.388 71.8516 15.6328C71.4401 15.8724 70.9167 15.9922 70.2812 15.9922C69.7917 15.9922 69.3385 15.9089 68.9219 15.7422C68.5104 15.5703 68.1615 15.3438 67.875 15.0625C67.5938 14.7812 67.3516 14.4557 67.1484 14.0859C66.9505 13.7161 66.8047 13.3333 66.7109 12.9375C66.6224 12.5417 66.5781 12.1432 66.5781 11.7422C66.5781 11.1172 66.6536 10.5391 66.8047 10.0078C66.9609 9.47656 67.1901 9.0026 67.4922 8.58594C67.7943 8.16927 68.1901 7.84375 68.6797 7.60938C69.1745 7.36979 69.7396 7.25 70.375 7.25C70.9375 7.25 71.4271 7.35938 71.8438 7.57812C72.2656 7.79167 72.6432 8.1224 72.9766 8.57031V7.42969H74.25V15.3828C74.25 15.7474 74.2396 16.0651 74.2188 16.3359C74.2031 16.612 74.1589 16.9167 74.0859 17.25C74.0182 17.5833 73.9245 17.8698 73.8047 18.1094C73.6849 18.349 73.5156 18.5885 73.2969 18.8281C73.0833 19.0729 72.8255 19.2682 72.5234 19.4141C72.2266 19.5651 71.8568 19.6875 71.4141 19.7812C70.9714 19.875 70.4714 19.9219 69.9141 19.9219H68.4688ZM78.9062 15.125C79.526 15.125 80.0703 14.9557 80.5391 14.6172C81.013 14.2734 81.3177 13.8125 81.4531 13.2344V11.7891C81.4271 11.7891 81.2682 11.8021 80.9766 11.8281C80.6901 11.8542 80.5026 11.8698 80.4141 11.875C79.2839 11.974 78.4948 12.1589 78.0469 12.4297C77.6042 12.7005 77.3828 13.1354 77.3828 13.7344C77.3828 14.1927 77.5182 14.5391 77.7891 14.7734C78.0599 15.0078 78.4323 15.125 78.9062 15.125ZM81.7422 16C81.6641 15.6667 81.5885 15.3073 81.5156 14.9219C81.0417 15.3958 80.5964 15.724 80.1797 15.9062C79.763 16.0885 79.2734 16.1797 78.7109 16.1797C77.9089 16.1797 77.263 15.9714 76.7734 15.5547C76.2891 15.1328 76.0469 14.5286 76.0469 13.7422C76.0469 12.8672 76.3776 12.2188 77.0391 11.7969C77.7057 11.375 78.6641 11.112 79.9141 11.0078C80.0859 10.9922 80.3438 10.9714 80.6875 10.9453C81.0365 10.9141 81.2969 10.8906 81.4688 10.875V10.1172C81.4688 9.51302 81.3281 9.0651 81.0469 8.77344C80.7656 8.48177 80.3229 8.33594 79.7188 8.33594C78.875 8.33594 78.0234 8.54427 77.1641 8.96094C77.138 8.89844 77.0703 8.71875 76.9609 8.42188C76.8516 8.11979 76.7943 7.96354 76.7891 7.95312C77.1693 7.73958 77.6198 7.57031 78.1406 7.44531C78.6667 7.3151 79.2005 7.25 79.7422 7.25C80.8099 7.25 81.5781 7.48438 82.0469 7.95312C82.5208 8.41667 82.7578 9.20833 82.7578 10.3281V16H81.7422Z" fill="#FEF75E"/>
<path d="M50.3594 30V18.4453H51.7188V28.7969H56.8047L56.7578 30H50.3594ZM63.0391 23.0156C62.6589 22.5573 62.1354 22.3281 61.4688 22.3281C60.8021 22.3281 60.2578 22.5651 59.8359 23.0391C59.4141 23.5078 59.1667 24.151 59.0938 24.9688H63.6172C63.6172 24.1198 63.4245 23.4688 63.0391 23.0156ZM61.7266 30.1797C60.4818 30.1797 59.5 29.7839 58.7812 28.9922C58.0677 28.2005 57.7109 27.1172 57.7109 25.7422C57.7109 24.4141 58.0573 23.3385 58.75 22.5156C59.4427 21.6875 60.3542 21.2656 61.4844 21.25C62.5469 21.25 63.388 21.6146 64.0078 22.3438C64.6328 23.0677 64.9453 24.0365 64.9453 25.25C64.9453 25.3125 64.9427 25.4271 64.9375 25.5938C64.9375 25.7604 64.9375 25.8802 64.9375 25.9531H59.0547C59.0703 26.9271 59.3203 27.6875 59.8047 28.2344C60.2943 28.776 60.9505 29.0469 61.7734 29.0469C62.6797 29.0469 63.5885 28.8073 64.5 28.3281L64.7031 29.3828C63.8333 29.9141 62.8411 30.1797 61.7266 30.1797ZM68.2969 21.4297V30H66.9844V21.4297H68.2969ZM68.2969 18.3125V19.8594H66.9844V18.3125H68.2969ZM73.4922 30.1562C72.6484 30.1562 72.0495 29.9505 71.6953 29.5391C71.3411 29.1276 71.1536 28.4635 71.1328 27.5469V22.3984H69.8594L69.9141 21.5391L71.125 21.4297L71.5703 19.4688L72.4297 19.4375V21.4297H74.8125V22.3984H72.4297V27.3125C72.4297 27.9635 72.5286 28.4219 72.7266 28.6875C72.9245 28.9531 73.263 29.0859 73.7422 29.0859C73.9141 29.0859 74.2865 29.0443 74.8594 28.9609L74.9141 29.9922C74.2943 30.1016 73.8203 30.1562 73.4922 30.1562ZM81.1484 23.0156C80.7682 22.5573 80.2448 22.3281 79.5781 22.3281C78.9115 22.3281 78.3672 22.5651 77.9453 23.0391C77.5234 23.5078 77.276 24.151 77.2031 24.9688H81.7266C81.7266 24.1198 81.5339 23.4688 81.1484 23.0156ZM79.8359 30.1797C78.5911 30.1797 77.6094 29.7839 76.8906 28.9922C76.1771 28.2005 75.8203 27.1172 75.8203 25.7422C75.8203 24.4141 76.1667 23.3385 76.8594 22.5156C77.5521 21.6875 78.4635 21.2656 79.5938 21.25C80.6562 21.25 81.4974 21.6146 82.1172 22.3438C82.7422 23.0677 83.0547 24.0365 83.0547 25.25C83.0547 25.3125 83.0521 25.4271 83.0469 25.5938C83.0469 25.7604 83.0469 25.8802 83.0469 25.9531H77.1641C77.1797 26.9271 77.4297 27.6875 77.9141 28.2344C78.4036 28.776 79.0599 29.0469 79.8828 29.0469C80.7891 29.0469 81.6979 28.8073 82.6094 28.3281L82.8125 29.3828C81.9427 29.9141 80.9505 30.1797 79.8359 30.1797Z" fill="white"/>
<path opacity="0.5" d="M36.3711 22.0898C35.7409 22.0898 35.2474 21.8854 34.8906 21.4766C34.5365 21.0677 34.3594 20.5326 34.3594 19.8711C34.362 19.2044 34.543 18.6641 34.9023 18.25C35.2643 17.8333 35.7591 17.625 36.3867 17.625C36.6081 17.625 36.8216 17.6523 37.0273 17.707C37.2357 17.7617 37.3997 17.8333 37.5195 17.9219L37.3398 18.4297C37.0352 18.2656 36.7135 18.1836 36.375 18.1836C35.9609 18.1836 35.6328 18.3346 35.3906 18.6367C35.151 18.9388 35.0312 19.3516 35.0312 19.875C35.0312 20.3854 35.1497 20.7904 35.3867 21.0898C35.6263 21.3867 35.957 21.5352 36.3789 21.5352C36.7148 21.5352 37.0586 21.444 37.4102 21.2617L37.4922 21.7812C37.2083 21.987 36.8346 22.0898 36.3711 22.0898ZM38.8164 19.8672C38.8164 20.375 38.9284 20.7826 39.1523 21.0898C39.3789 21.3945 39.7083 21.5469 40.1406 21.5469C40.5677 21.5469 40.8893 21.3945 41.1055 21.0898C41.3242 20.7852 41.4336 20.375 41.4336 19.8594C41.4336 19.3359 41.3255 18.9245 41.1094 18.625C40.8958 18.3229 40.569 18.1719 40.1289 18.1719C39.7018 18.1719 39.3763 18.3255 39.1523 18.6328C38.9284 18.9401 38.8164 19.3516 38.8164 19.8672ZM42.1094 19.8555C42.1094 20.5195 41.9323 21.0586 41.5781 21.4727C41.224 21.8841 40.7344 22.0898 40.1094 22.0898C39.5078 22.0898 39.0286 21.8815 38.6719 21.4648C38.3177 21.0482 38.1406 20.513 38.1406 19.8594C38.1406 19.1927 38.319 18.6536 38.6758 18.2422C39.0326 17.8307 39.5221 17.625 40.1445 17.625C40.7565 17.625 41.237 17.832 41.5859 18.2461C41.9349 18.6576 42.1094 19.194 42.1094 19.8555ZM48.4766 22V19.7695C48.4766 19.5612 48.4714 19.3867 48.4609 19.2461C48.4531 19.1055 48.4323 18.9622 48.3984 18.8164C48.3672 18.6706 48.3216 18.556 48.2617 18.4727C48.2044 18.3867 48.1237 18.3177 48.0195 18.2656C47.9154 18.2109 47.7904 18.1836 47.6445 18.1836C47.3581 18.1836 47.1133 18.2604 46.9102 18.4141C46.7096 18.5677 46.5664 18.7839 46.4805 19.0625C46.457 19.25 46.4453 19.4505 46.4453 19.6641V22H45.793V19.6992C45.793 19.5065 45.7865 19.3398 45.7734 19.1992C45.7604 19.056 45.7357 18.918 45.6992 18.7852C45.6628 18.6497 45.6133 18.5404 45.5508 18.457C45.4909 18.3737 45.4102 18.3073 45.3086 18.2578C45.207 18.2083 45.0859 18.1836 44.9453 18.1836C44.6328 18.1836 44.3698 18.263 44.1562 18.4219C43.9453 18.5807 43.8034 18.7917 43.7305 19.0547C43.707 19.2552 43.6953 19.4727 43.6953 19.707V22H43.043C43.0378 19.3203 43.0352 17.8919 43.0352 17.7148H43.582L43.6641 18.3281C43.7943 18.1302 43.9792 17.9635 44.2188 17.8281C44.4583 17.6927 44.7305 17.625 45.0352 17.625C45.194 17.625 45.3398 17.6419 45.4727 17.6758C45.6081 17.707 45.7201 17.7474 45.8086 17.7969C45.8997 17.8464 45.9805 17.9062 46.0508 17.9766C46.1211 18.0443 46.1758 18.112 46.2148 18.1797C46.2539 18.2448 46.2865 18.3138 46.3125 18.3867C46.625 17.8789 47.1029 17.625 47.7461 17.625C48.2227 17.625 48.5716 17.7617 48.793 18.0352C49.0169 18.306 49.1289 18.7083 49.1289 19.2422V22H48.4766Z" fill="white"/>
</svg>
